<mxfile host="app.diagrams.net" modified="2023-12-13T08:25:32.069Z" agent="Mozilla/5.0 (Macintosh; Intel Mac OS X 10_15_7) AppleWebKit/537.36 (KHTML, like Gecko) Chrome/120.0.0.0 Safari/537.36" etag="1lq1YutjSBDpejGYlXSJ" version="22.1.8" type="google">
  <diagram name="Single node" id="x4TNpdqoHl5asDUS4WaB">
    <mxGraphModel grid="1" page="1" gridSize="10" guides="1" tooltips="1" connect="1" arrows="1" fold="1" pageScale="1" pageWidth="850" pageHeight="1100" math="0" shadow="0">
      <root>
        <mxCell id="0" />
        <mxCell id="1" parent="0" />
        <mxCell id="OX_zlI_0chY2JoXTOn6b-12" style="edgeStyle=orthogonalEdgeStyle;rounded=0;orthogonalLoop=1;jettySize=auto;html=1;" edge="1" parent="1" source="OX_zlI_0chY2JoXTOn6b-1" target="OX_zlI_0chY2JoXTOn6b-6">
          <mxGeometry relative="1" as="geometry" />
        </mxCell>
        <mxCell id="OX_zlI_0chY2JoXTOn6b-1" value="Scroll&lt;br&gt;Blockchain&lt;br&gt;Network" style="ellipse;shape=cloud;whiteSpace=wrap;html=1;" vertex="1" parent="1">
          <mxGeometry x="60" y="420" width="120" height="80" as="geometry" />
        </mxCell>
        <mxCell id="OX_zlI_0chY2JoXTOn6b-2" value="AWS Account" style="points=[[0,0],[0.25,0],[0.5,0],[0.75,0],[1,0],[1,0.25],[1,0.5],[1,0.75],[1,1],[0.75,1],[0.5,1],[0.25,1],[0,1],[0,0.75],[0,0.5],[0,0.25]];outlineConnect=0;gradientColor=none;html=1;whiteSpace=wrap;fontSize=12;fontStyle=0;container=1;pointerEvents=0;collapsible=0;recursiveResize=0;shape=mxgraph.aws4.group;grIcon=mxgraph.aws4.group_aws_cloud_alt;strokeColor=#232F3E;fillColor=none;verticalAlign=top;align=left;spacingLeft=30;fontColor=#232F3E;dashed=0;" vertex="1" parent="1">
          <mxGeometry x="270" y="310" width="840" height="310" as="geometry" />
        </mxCell>
        <mxCell id="OX_zlI_0chY2JoXTOn6b-7" value="Public subnet" style="points=[[0,0],[0.25,0],[0.5,0],[0.75,0],[1,0],[1,0.25],[1,0.5],[1,0.75],[1,1],[0.75,1],[0.5,1],[0.25,1],[0,1],[0,0.75],[0,0.5],[0,0.25]];outlineConnect=0;gradientColor=none;html=1;whiteSpace=wrap;fontSize=12;fontStyle=0;container=1;pointerEvents=0;collapsible=0;recursiveResize=0;shape=mxgraph.aws4.group;grIcon=mxgraph.aws4.group_security_group;grStroke=0;strokeColor=#7AA116;fillColor=#F2F6E8;verticalAlign=top;align=left;spacingLeft=30;fontColor=#248814;dashed=0;" vertex="1" parent="OX_zlI_0chY2JoXTOn6b-2">
          <mxGeometry x="200" y="70" width="200" height="180" as="geometry" />
        </mxCell>
        <mxCell id="OX_zlI_0chY2JoXTOn6b-9" value="Amazon EC2&lt;br&gt;Scroll l2geth node" style="sketch=0;points=[[0,0,0],[0.25,0,0],[0.5,0,0],[0.75,0,0],[1,0,0],[0,1,0],[0.25,1,0],[0.5,1,0],[0.75,1,0],[1,1,0],[0,0.25,0],[0,0.5,0],[0,0.75,0],[1,0.25,0],[1,0.5,0],[1,0.75,0]];outlineConnect=0;fontColor=#232F3E;fillColor=#ED7100;strokeColor=#ffffff;dashed=0;verticalLabelPosition=bottom;verticalAlign=top;align=center;html=1;fontSize=12;fontStyle=0;aspect=fixed;shape=mxgraph.aws4.resourceIcon;resIcon=mxgraph.aws4.ec2;" vertex="1" parent="OX_zlI_0chY2JoXTOn6b-7">
          <mxGeometry x="60" y="41" width="78" height="78" as="geometry" />
        </mxCell>
        <mxCell id="OX_zlI_0chY2JoXTOn6b-13" style="edgeStyle=orthogonalEdgeStyle;rounded=0;orthogonalLoop=1;jettySize=auto;html=1;" edge="1" parent="OX_zlI_0chY2JoXTOn6b-2" source="OX_zlI_0chY2JoXTOn6b-6" target="OX_zlI_0chY2JoXTOn6b-9">
          <mxGeometry relative="1" as="geometry" />
        </mxCell>
        <mxCell id="OX_zlI_0chY2JoXTOn6b-6" value="Internet Gateway" style="sketch=0;outlineConnect=0;fontColor=#232F3E;gradientColor=none;fillColor=#8C4FFF;strokeColor=none;dashed=0;verticalLabelPosition=bottom;verticalAlign=top;align=center;html=1;fontSize=12;fontStyle=0;aspect=fixed;pointerEvents=1;shape=mxgraph.aws4.internet_gateway;" vertex="1" parent="OX_zlI_0chY2JoXTOn6b-2">
          <mxGeometry x="90" y="111" width="78" height="78" as="geometry" />
        </mxCell>
        <mxCell id="OX_zlI_0chY2JoXTOn6b-11" value="Self-built and run DApps" style="rounded=0;whiteSpace=wrap;html=1;" vertex="1" parent="OX_zlI_0chY2JoXTOn6b-2">
          <mxGeometry x="492" y="95" width="120" height="110" as="geometry" />
        </mxCell>
        <mxCell id="OX_zlI_0chY2JoXTOn6b-14" style="edgeStyle=orthogonalEdgeStyle;rounded=0;orthogonalLoop=1;jettySize=auto;html=1;entryX=0;entryY=0.5;entryDx=0;entryDy=0;" edge="1" parent="OX_zlI_0chY2JoXTOn6b-2" source="OX_zlI_0chY2JoXTOn6b-9" target="OX_zlI_0chY2JoXTOn6b-11">
          <mxGeometry relative="1" as="geometry" />
        </mxCell>
        <mxCell id="OX_zlI_0chY2JoXTOn6b-21" value="&lt;font style=&quot;font-size: 14px;&quot; color=&quot;#ffffff&quot;&gt;1&lt;/font&gt;" style="ellipse;whiteSpace=wrap;html=1;strokeColor=#FF8800;fillColor=#FF8800;" vertex="1" parent="OX_zlI_0chY2JoXTOn6b-2">
          <mxGeometry x="114" y="76" width="30" height="30" as="geometry" />
        </mxCell>
        <mxCell id="OX_zlI_0chY2JoXTOn6b-22" value="&lt;font style=&quot;font-size: 14px;&quot; color=&quot;#ffffff&quot;&gt;2&lt;/font&gt;" style="ellipse;whiteSpace=wrap;html=1;strokeColor=#FF8800;fillColor=#FF8800;" vertex="1" parent="OX_zlI_0chY2JoXTOn6b-2">
          <mxGeometry x="440" y="114" width="30" height="30" as="geometry" />
        </mxCell>
        <mxCell id="IH9-5eQ_SOQHSwX34WHm-17" value="Default VPC" style="points=[[0,0],[0.25,0],[0.5,0],[0.75,0],[1,0],[1,0.25],[1,0.5],[1,0.75],[1,1],[0.75,1],[0.5,1],[0.25,1],[0,1],[0,0.75],[0,0.5],[0,0.25]];outlineConnect=0;gradientColor=none;html=1;whiteSpace=wrap;fontSize=12;fontStyle=0;container=0;pointerEvents=0;collapsible=0;recursiveResize=0;shape=mxgraph.aws4.group;grIcon=mxgraph.aws4.group_vpc;strokeColor=#248814;fillColor=none;verticalAlign=top;align=left;spacingLeft=30;fontColor=#AAB7B8;dashed=0;" vertex="1" parent="OX_zlI_0chY2JoXTOn6b-2">
          <mxGeometry x="50" y="35" width="600" height="230" as="geometry" />
        </mxCell>
        <mxCell id="OX_zlI_0chY2JoXTOn6b-24" value="&lt;font style=&quot;font-size: 14px;&quot; color=&quot;#ffffff&quot;&gt;4&lt;/font&gt;" style="ellipse;whiteSpace=wrap;html=1;strokeColor=#FF8800;fillColor=#FF8800;" vertex="1" parent="OX_zlI_0chY2JoXTOn6b-2">
          <mxGeometry x="670" y="195" width="30" height="30" as="geometry" />
        </mxCell>
        <mxCell id="OX_zlI_0chY2JoXTOn6b-16" value="Amazon CloudWatch&lt;br&gt;Scroll Metrics" style="sketch=0;points=[[0,0,0],[0.25,0,0],[0.5,0,0],[0.75,0,0],[1,0,0],[0,1,0],[0.25,1,0],[0.5,1,0],[0.75,1,0],[1,1,0],[0,0.25,0],[0,0.5,0],[0,0.75,0],[1,0.25,0],[1,0.5,0],[1,0.75,0]];points=[[0,0,0],[0.25,0,0],[0.5,0,0],[0.75,0,0],[1,0,0],[0,1,0],[0.25,1,0],[0.5,1,0],[0.75,1,0],[1,1,0],[0,0.25,0],[0,0.5,0],[0,0.75,0],[1,0.25,0],[1,0.5,0],[1,0.75,0]];outlineConnect=0;fontColor=#232F3E;fillColor=#E7157B;strokeColor=#ffffff;dashed=0;verticalLabelPosition=bottom;verticalAlign=top;align=center;html=1;fontSize=12;fontStyle=0;aspect=fixed;shape=mxgraph.aws4.resourceIcon;resIcon=mxgraph.aws4.cloudwatch_2;" vertex="1" parent="OX_zlI_0chY2JoXTOn6b-2">
          <mxGeometry x="720" y="187" width="78" height="78" as="geometry" />
        </mxCell>
        <mxCell id="tnVEzlvcGCnVM9QI6DYc-2" style="edgeStyle=orthogonalEdgeStyle;rounded=0;orthogonalLoop=1;jettySize=auto;html=1;" edge="1" parent="OX_zlI_0chY2JoXTOn6b-2" source="OX_zlI_0chY2JoXTOn6b-9" target="OX_zlI_0chY2JoXTOn6b-16">
          <mxGeometry relative="1" as="geometry">
            <mxPoint x="780" y="230" as="targetPoint" />
            <Array as="points">
              <mxPoint x="430" y="160" />
              <mxPoint x="430" y="230" />
            </Array>
          </mxGeometry>
        </mxCell>
        <mxCell id="OX_zlI_0chY2JoXTOn6b-10" value="Managed Blockchain /&amp;nbsp;&lt;br&gt;ETH RPC Node" style="sketch=0;points=[[0,0,0],[0.25,0,0],[0.5,0,0],[0.75,0,0],[1,0,0],[0,1,0],[0.25,1,0],[0.5,1,0],[0.75,1,0],[1,1,0],[0,0.25,0],[0,0.5,0],[0,0.75,0],[1,0.25,0],[1,0.5,0],[1,0.75,0]];outlineConnect=0;fontColor=#232F3E;fillColor=#ED7100;strokeColor=#ffffff;dashed=0;verticalLabelPosition=bottom;verticalAlign=top;align=center;html=1;fontSize=12;fontStyle=0;aspect=fixed;shape=mxgraph.aws4.resourceIcon;resIcon=mxgraph.aws4.managed_blockchain;" vertex="1" parent="OX_zlI_0chY2JoXTOn6b-2">
          <mxGeometry x="720" y="33" width="78" height="78" as="geometry" />
        </mxCell>
        <mxCell id="tnVEzlvcGCnVM9QI6DYc-1" style="edgeStyle=orthogonalEdgeStyle;rounded=0;orthogonalLoop=1;jettySize=auto;html=1;" edge="1" parent="OX_zlI_0chY2JoXTOn6b-2" target="OX_zlI_0chY2JoXTOn6b-10">
          <mxGeometry relative="1" as="geometry">
            <Array as="points">
              <mxPoint x="338" y="140" />
              <mxPoint x="430" y="140" />
              <mxPoint x="430" y="72" />
            </Array>
            <mxPoint x="340" y="140" as="sourcePoint" />
          </mxGeometry>
        </mxCell>
        <mxCell id="OX_zlI_0chY2JoXTOn6b-25" value="&lt;font color=&quot;#ffffff&quot;&gt;&lt;span style=&quot;font-size: 14px;&quot;&gt;3&lt;/span&gt;&lt;/font&gt;" style="ellipse;whiteSpace=wrap;html=1;strokeColor=#FF8800;fillColor=#FF8800;" vertex="1" parent="OX_zlI_0chY2JoXTOn6b-2">
          <mxGeometry x="670" y="37" width="30" height="30" as="geometry" />
        </mxCell>
      </root>
    </mxGraphModel>
  </diagram>
</mxfile>
